<svg width="25" height="24" viewBox="0 0 25 24" fill="none" xmlns="http://www.w3.org/2000/svg">
<path d="M4.69951 18.12C5.73706 17.34 6.89668 16.7248 8.17837 16.2744C9.46005 15.8248 10.8028 15.6 12.2065 15.6C13.6103 15.6 14.953 15.8248 16.2347 16.2744C17.5164 16.7248 18.676 17.34 19.7135 18.12C20.4256 17.3 20.9802 16.37 21.3773 15.33C21.7736 14.29 21.9717 13.18 21.9717 12C21.9717 9.34 21.0208 7.0748 19.1191 5.2044C17.2165 3.3348 14.9123 2.4 12.2065 2.4C9.50074 2.4 7.19696 3.3348 5.29519 5.2044C3.3926 7.0748 2.4413 9.34 2.4413 12C2.4413 13.18 2.63986 14.29 3.03698 15.33C3.43329 16.37 3.98746 17.3 4.69951 18.12ZM12.2065 13.2C11.0062 13.2 9.99389 12.7952 9.16954 11.9856C8.34601 11.1752 7.93424 10.18 7.93424 9C7.93424 7.82 8.34601 6.8248 9.16954 6.0144C9.99389 5.2048 11.0062 4.8 12.2065 4.8C13.4068 4.8 14.4192 5.2048 15.2435 6.0144C16.067 6.8248 16.4788 7.82 16.4788 9C16.4788 10.18 16.067 11.1752 15.2435 11.9856C14.4192 12.7952 13.4068 13.2 12.2065 13.2ZM12.2065 24C10.518 24 8.9311 23.6848 7.44598 23.0544C5.96085 22.4248 4.66899 21.57 3.57041 20.49C2.47182 19.41 1.60231 18.14 0.961874 16.68C0.320625 15.22 0 13.66 0 12C0 10.34 0.320625 8.78 0.961874 7.32C1.60231 5.86 2.47182 4.59 3.57041 3.51C4.66899 2.43 5.96085 1.5748 7.44598 0.9444C8.9311 0.3148 10.518 0 12.2065 0C13.8951 0 15.4819 0.3148 16.9671 0.9444C18.4522 1.5748 19.744 2.43 20.8426 3.51C21.9412 4.59 22.8107 5.86 23.4512 7.32C24.0924 8.78 24.413 10.34 24.413 12C24.413 13.66 24.0924 15.22 23.4512 16.68C22.8107 18.14 21.9412 19.41 20.8426 20.49C19.744 21.57 18.4522 22.4248 16.9671 23.0544C15.4819 23.6848 13.8951 24 12.2065 24ZM12.2065 21.6C13.2848 21.6 14.302 21.4452 15.2582 21.1356C16.2143 20.8252 17.0891 20.38 17.8826 19.8C17.0891 19.22 16.2143 18.7748 15.2582 18.4644C14.302 18.1548 13.2848 18 12.2065 18C11.1283 18 10.1111 18.1548 9.15489 18.4644C8.19871 18.7748 7.32391 19.22 6.53049 19.8C7.32391 20.38 8.19871 20.8252 9.15489 21.1356C10.1111 21.4452 11.1283 21.6 12.2065 21.6ZM12.2065 10.8C12.7355 10.8 13.1729 10.63 13.5187 10.29C13.8646 9.95 14.0375 9.52 14.0375 9C14.0375 8.48 13.8646 8.05 13.5187 7.71C13.1729 7.37 12.7355 7.2 12.2065 7.2C11.6776 7.2 11.2402 7.37 10.8943 7.71C10.5485 8.05 10.3755 8.48 10.3755 9C10.3755 9.52 10.5485 9.95 10.8943 10.29C11.2402 10.63 11.6776 10.8 12.2065 10.8Z" fill="white"/>
</svg>
