<svg width="20" height="24" viewBox="0 0 20 24" fill="none" xmlns="http://www.w3.org/2000/svg">
<path d="M0.413086 20.4V18H2.85439V9.6C2.85439 7.94 3.363 6.4648 4.38021 5.1744C5.39742 3.8848 6.71979 3.04 8.34733 2.64V1.8C8.34733 1.3 8.52554 0.8752 8.88197 0.5256C9.23759 0.1752 9.6697 0 10.1783 0C10.6869 0 11.119 0.1752 11.4746 0.5256C11.8311 0.8752 12.0093 1.3 12.0093 1.8V2.64C13.6368 3.04 14.9592 3.8848 15.9764 5.1744C16.9936 6.4648 17.5022 7.94 17.5022 9.6V18H19.9435V20.4H0.413086ZM10.1783 24C9.50694 24 8.93243 23.7652 8.45474 23.2956C7.97625 22.8252 7.737 22.26 7.737 21.6H12.6196C12.6196 22.26 12.3808 22.8252 11.9031 23.2956C11.4246 23.7652 10.8497 24 10.1783 24ZM5.29569 18H15.0609V9.6C15.0609 8.28 14.5828 7.15 13.6266 6.21C12.6705 5.27 11.521 4.8 10.1783 4.8C8.83559 4.8 7.68614 5.27 6.72996 6.21C5.77378 7.15 5.29569 8.28 5.29569 9.6V18Z" fill="white"/>
</svg>
