<svg width="25" height="24" viewBox="0 0 25 24" fill="none" xmlns="http://www.w3.org/2000/svg">
<path d="M22.5142 24L13.9697 15.6C13.2915 16.1333 12.5117 16.5556 11.6301 16.8667C10.7485 17.1778 9.81043 17.3333 8.81582 17.3333C6.35191 17.3333 4.26686 16.4947 2.56066 14.8173C0.853552 13.1391 0 11.0889 0 8.66667C0 6.24444 0.853552 4.19422 2.56066 2.516C4.26686 0.838667 6.35191 0 8.81582 0C11.2797 0 13.3652 0.838667 15.0723 2.516C16.7785 4.19422 17.6316 6.24444 17.6316 8.66667C17.6316 9.64444 17.4734 10.5667 17.1569 11.4333C16.8405 12.3 16.411 13.0667 15.8685 13.7333L24.413 22.1333L22.5142 24ZM8.81582 14.6667C10.5112 14.6667 11.9524 14.0836 13.1396 12.9173C14.3259 11.7502 14.9191 10.3333 14.9191 8.66667C14.9191 7 14.3259 5.58311 13.1396 4.416C11.9524 3.24978 10.5112 2.66667 8.81582 2.66667C7.12047 2.66667 5.6792 3.24978 4.492 4.416C3.30571 5.58311 2.71256 7 2.71256 8.66667C2.71256 10.3333 3.30571 11.7502 4.492 12.9173C5.6792 14.0836 7.12047 14.6667 8.81582 14.6667Z" fill="white"/>
</svg>
